G04 #@! TF.GenerationSoftware,KiCad,Pcbnew,(5.1.5)-3*
G04 #@! TF.CreationDate,2020-04-19T15:47:30-05:00*
G04 #@! TF.ProjectId,PCB-Ruler,5043422d-5275-46c6-9572-2e6b69636164,rev?*
G04 #@! TF.SameCoordinates,Original*
G04 #@! TF.FileFunction,Soldermask,Top*
G04 #@! TF.FilePolarity,Negative*
%FSLAX46Y46*%
G04 Gerber Fmt 4.6, Leading zero omitted, Abs format (unit mm)*
G04 Created by KiCad (PCBNEW (5.1.5)-3) date 2020-04-19 15:47:30*
%MOMM*%
%LPD*%
G04 APERTURE LIST*
%ADD10C,0.100000*%
G04 APERTURE END LIST*
D10*
G36*
X294701409Y-54890701D02*
G01*
X296330387Y-55565446D01*
X296330388Y-55565447D01*
X297796430Y-56545024D01*
X299043196Y-57791790D01*
X299697728Y-58771368D01*
X300022774Y-59257833D01*
X300697519Y-60886811D01*
X301041500Y-62616122D01*
X301041500Y-64379318D01*
X300697519Y-66108629D01*
X300022774Y-67737607D01*
X299808213Y-68058720D01*
X299043196Y-69203650D01*
X297796430Y-70450416D01*
X296816852Y-71104948D01*
X296330387Y-71429994D01*
X294701409Y-72104739D01*
X292972098Y-72448720D01*
X291208902Y-72448720D01*
X289479591Y-72104739D01*
X287850613Y-71429994D01*
X287364148Y-71104948D01*
X286384570Y-70450416D01*
X285137804Y-69203650D01*
X284372787Y-68058720D01*
X284158226Y-67737607D01*
X283483481Y-66108629D01*
X283139500Y-64379318D01*
X283139500Y-62616122D01*
X283483481Y-60886811D01*
X284158226Y-59257833D01*
X284483272Y-58771368D01*
X285137804Y-57791790D01*
X286384570Y-56545024D01*
X287850612Y-55565447D01*
X287850613Y-55565446D01*
X289479591Y-54890701D01*
X291208902Y-54546720D01*
X292972098Y-54546720D01*
X294701409Y-54890701D01*
G37*
G36*
X217379174Y-66561185D02*
G01*
X217416867Y-66572619D01*
X217451603Y-66591186D01*
X217482048Y-66616172D01*
X217507034Y-66646617D01*
X217525601Y-66681353D01*
X217537035Y-66719046D01*
X217541500Y-66764381D01*
X217541500Y-67851059D01*
X217537035Y-67896394D01*
X217525601Y-67934087D01*
X217507034Y-67968823D01*
X217482048Y-67999268D01*
X217451603Y-68024254D01*
X217416867Y-68042821D01*
X217379174Y-68054255D01*
X217333839Y-68058720D01*
X216497161Y-68058720D01*
X216451826Y-68054255D01*
X216414133Y-68042821D01*
X216379397Y-68024254D01*
X216348952Y-67999268D01*
X216323966Y-67968823D01*
X216305399Y-67934087D01*
X216293965Y-67896394D01*
X216289500Y-67851059D01*
X216289500Y-66764381D01*
X216293965Y-66719046D01*
X216305399Y-66681353D01*
X216323966Y-66646617D01*
X216348952Y-66616172D01*
X216379397Y-66591186D01*
X216414133Y-66572619D01*
X216451826Y-66561185D01*
X216497161Y-66556720D01*
X217333839Y-66556720D01*
X217379174Y-66561185D01*
G37*
G36*
X64979174Y-66561185D02*
G01*
X65016867Y-66572619D01*
X65051603Y-66591186D01*
X65082048Y-66616172D01*
X65107034Y-66646617D01*
X65125601Y-66681353D01*
X65137035Y-66719046D01*
X65141500Y-66764381D01*
X65141500Y-67851059D01*
X65137035Y-67896394D01*
X65125601Y-67934087D01*
X65107034Y-67968823D01*
X65082048Y-67999268D01*
X65051603Y-68024254D01*
X65016867Y-68042821D01*
X64979174Y-68054255D01*
X64933839Y-68058720D01*
X64097161Y-68058720D01*
X64051826Y-68054255D01*
X64014133Y-68042821D01*
X63979397Y-68024254D01*
X63948952Y-67999268D01*
X63923966Y-67968823D01*
X63905399Y-67934087D01*
X63893965Y-67896394D01*
X63889500Y-67851059D01*
X63889500Y-66764381D01*
X63893965Y-66719046D01*
X63905399Y-66681353D01*
X63923966Y-66646617D01*
X63948952Y-66616172D01*
X63979397Y-66591186D01*
X64014133Y-66572619D01*
X64051826Y-66561185D01*
X64097161Y-66556720D01*
X64933839Y-66556720D01*
X64979174Y-66561185D01*
G37*
G36*
X62929174Y-66561185D02*
G01*
X62966867Y-66572619D01*
X63001603Y-66591186D01*
X63032048Y-66616172D01*
X63057034Y-66646617D01*
X63075601Y-66681353D01*
X63087035Y-66719046D01*
X63091500Y-66764381D01*
X63091500Y-67851059D01*
X63087035Y-67896394D01*
X63075601Y-67934087D01*
X63057034Y-67968823D01*
X63032048Y-67999268D01*
X63001603Y-68024254D01*
X62966867Y-68042821D01*
X62929174Y-68054255D01*
X62883839Y-68058720D01*
X62047161Y-68058720D01*
X62001826Y-68054255D01*
X61964133Y-68042821D01*
X61929397Y-68024254D01*
X61898952Y-67999268D01*
X61873966Y-67968823D01*
X61855399Y-67934087D01*
X61843965Y-67896394D01*
X61839500Y-67851059D01*
X61839500Y-66764381D01*
X61843965Y-66719046D01*
X61855399Y-66681353D01*
X61873966Y-66646617D01*
X61898952Y-66616172D01*
X61929397Y-66591186D01*
X61964133Y-66572619D01*
X62001826Y-66561185D01*
X62047161Y-66556720D01*
X62883839Y-66556720D01*
X62929174Y-66561185D01*
G37*
G36*
X113729174Y-66561185D02*
G01*
X113766867Y-66572619D01*
X113801603Y-66591186D01*
X113832048Y-66616172D01*
X113857034Y-66646617D01*
X113875601Y-66681353D01*
X113887035Y-66719046D01*
X113891500Y-66764381D01*
X113891500Y-67851059D01*
X113887035Y-67896394D01*
X113875601Y-67934087D01*
X113857034Y-67968823D01*
X113832048Y-67999268D01*
X113801603Y-68024254D01*
X113766867Y-68042821D01*
X113729174Y-68054255D01*
X113683839Y-68058720D01*
X112847161Y-68058720D01*
X112801826Y-68054255D01*
X112764133Y-68042821D01*
X112729397Y-68024254D01*
X112698952Y-67999268D01*
X112673966Y-67968823D01*
X112655399Y-67934087D01*
X112643965Y-67896394D01*
X112639500Y-67851059D01*
X112639500Y-66764381D01*
X112643965Y-66719046D01*
X112655399Y-66681353D01*
X112673966Y-66646617D01*
X112698952Y-66616172D01*
X112729397Y-66591186D01*
X112764133Y-66572619D01*
X112801826Y-66561185D01*
X112847161Y-66556720D01*
X113683839Y-66556720D01*
X113729174Y-66561185D01*
G37*
G36*
X115779174Y-66561185D02*
G01*
X115816867Y-66572619D01*
X115851603Y-66591186D01*
X115882048Y-66616172D01*
X115907034Y-66646617D01*
X115925601Y-66681353D01*
X115937035Y-66719046D01*
X115941500Y-66764381D01*
X115941500Y-67851059D01*
X115937035Y-67896394D01*
X115925601Y-67934087D01*
X115907034Y-67968823D01*
X115882048Y-67999268D01*
X115851603Y-68024254D01*
X115816867Y-68042821D01*
X115779174Y-68054255D01*
X115733839Y-68058720D01*
X114897161Y-68058720D01*
X114851826Y-68054255D01*
X114814133Y-68042821D01*
X114779397Y-68024254D01*
X114748952Y-67999268D01*
X114723966Y-67968823D01*
X114705399Y-67934087D01*
X114693965Y-67896394D01*
X114689500Y-67851059D01*
X114689500Y-66764381D01*
X114693965Y-66719046D01*
X114705399Y-66681353D01*
X114723966Y-66646617D01*
X114748952Y-66616172D01*
X114779397Y-66591186D01*
X114814133Y-66572619D01*
X114851826Y-66561185D01*
X114897161Y-66556720D01*
X115733839Y-66556720D01*
X115779174Y-66561185D01*
G37*
G36*
X164529174Y-66561185D02*
G01*
X164566867Y-66572619D01*
X164601603Y-66591186D01*
X164632048Y-66616172D01*
X164657034Y-66646617D01*
X164675601Y-66681353D01*
X164687035Y-66719046D01*
X164691500Y-66764381D01*
X164691500Y-67851059D01*
X164687035Y-67896394D01*
X164675601Y-67934087D01*
X164657034Y-67968823D01*
X164632048Y-67999268D01*
X164601603Y-68024254D01*
X164566867Y-68042821D01*
X164529174Y-68054255D01*
X164483839Y-68058720D01*
X163647161Y-68058720D01*
X163601826Y-68054255D01*
X163564133Y-68042821D01*
X163529397Y-68024254D01*
X163498952Y-67999268D01*
X163473966Y-67968823D01*
X163455399Y-67934087D01*
X163443965Y-67896394D01*
X163439500Y-67851059D01*
X163439500Y-66764381D01*
X163443965Y-66719046D01*
X163455399Y-66681353D01*
X163473966Y-66646617D01*
X163498952Y-66616172D01*
X163529397Y-66591186D01*
X163564133Y-66572619D01*
X163601826Y-66561185D01*
X163647161Y-66556720D01*
X164483839Y-66556720D01*
X164529174Y-66561185D01*
G37*
G36*
X166579174Y-66561185D02*
G01*
X166616867Y-66572619D01*
X166651603Y-66591186D01*
X166682048Y-66616172D01*
X166707034Y-66646617D01*
X166725601Y-66681353D01*
X166737035Y-66719046D01*
X166741500Y-66764381D01*
X166741500Y-67851059D01*
X166737035Y-67896394D01*
X166725601Y-67934087D01*
X166707034Y-67968823D01*
X166682048Y-67999268D01*
X166651603Y-68024254D01*
X166616867Y-68042821D01*
X166579174Y-68054255D01*
X166533839Y-68058720D01*
X165697161Y-68058720D01*
X165651826Y-68054255D01*
X165614133Y-68042821D01*
X165579397Y-68024254D01*
X165548952Y-67999268D01*
X165523966Y-67968823D01*
X165505399Y-67934087D01*
X165493965Y-67896394D01*
X165489500Y-67851059D01*
X165489500Y-66764381D01*
X165493965Y-66719046D01*
X165505399Y-66681353D01*
X165523966Y-66646617D01*
X165548952Y-66616172D01*
X165579397Y-66591186D01*
X165614133Y-66572619D01*
X165651826Y-66561185D01*
X165697161Y-66556720D01*
X166533839Y-66556720D01*
X166579174Y-66561185D01*
G37*
G36*
X215329174Y-66561185D02*
G01*
X215366867Y-66572619D01*
X215401603Y-66591186D01*
X215432048Y-66616172D01*
X215457034Y-66646617D01*
X215475601Y-66681353D01*
X215487035Y-66719046D01*
X215491500Y-66764381D01*
X215491500Y-67851059D01*
X215487035Y-67896394D01*
X215475601Y-67934087D01*
X215457034Y-67968823D01*
X215432048Y-67999268D01*
X215401603Y-68024254D01*
X215366867Y-68042821D01*
X215329174Y-68054255D01*
X215283839Y-68058720D01*
X214447161Y-68058720D01*
X214401826Y-68054255D01*
X214364133Y-68042821D01*
X214329397Y-68024254D01*
X214298952Y-67999268D01*
X214273966Y-67968823D01*
X214255399Y-67934087D01*
X214243965Y-67896394D01*
X214239500Y-67851059D01*
X214239500Y-66764381D01*
X214243965Y-66719046D01*
X214255399Y-66681353D01*
X214273966Y-66646617D01*
X214298952Y-66616172D01*
X214329397Y-66591186D01*
X214364133Y-66572619D01*
X214401826Y-66561185D01*
X214447161Y-66556720D01*
X215283839Y-66556720D01*
X215329174Y-66561185D01*
G37*
G36*
X305346500Y-66328720D02*
G01*
X302644500Y-66328720D01*
X302644500Y-60666720D01*
X305346500Y-60666720D01*
X305346500Y-66328720D01*
G37*
G36*
X281536500Y-66328720D02*
G01*
X278834500Y-66328720D01*
X278834500Y-60666720D01*
X281536500Y-60666720D01*
X281536500Y-66328720D01*
G37*
G36*
X264366500Y-64721721D02*
G01*
X264368902Y-64746107D01*
X264376015Y-64769556D01*
X264387566Y-64791167D01*
X264403111Y-64810109D01*
X264422053Y-64825654D01*
X264443664Y-64837205D01*
X264467113Y-64844318D01*
X264491499Y-64846720D01*
X264866500Y-64846720D01*
X264866500Y-65648720D01*
X264491499Y-65648720D01*
X264467113Y-65651122D01*
X264443664Y-65658235D01*
X264422053Y-65669786D01*
X264403111Y-65685331D01*
X264387566Y-65704273D01*
X264376015Y-65725884D01*
X264368902Y-65749333D01*
X264366500Y-65773719D01*
X264366500Y-65848720D01*
X264064500Y-65848720D01*
X264064500Y-64646720D01*
X264366500Y-64646720D01*
X264366500Y-64721721D01*
G37*
G36*
X269316500Y-65848720D02*
G01*
X269014500Y-65848720D01*
X269014500Y-65773719D01*
X269012098Y-65749333D01*
X269004985Y-65725884D01*
X268993434Y-65704273D01*
X268977889Y-65685331D01*
X268958947Y-65669786D01*
X268937336Y-65658235D01*
X268913887Y-65651122D01*
X268889501Y-65648720D01*
X268514500Y-65648720D01*
X268514500Y-64846720D01*
X268889501Y-64846720D01*
X268913887Y-64844318D01*
X268937336Y-64837205D01*
X268958947Y-64825654D01*
X268977889Y-64810109D01*
X268993434Y-64791167D01*
X269004985Y-64769556D01*
X269012098Y-64746107D01*
X269014500Y-64721721D01*
X269014500Y-64646720D01*
X269316500Y-64646720D01*
X269316500Y-65848720D01*
G37*
G36*
X217379174Y-62751185D02*
G01*
X217416867Y-62762619D01*
X217451603Y-62781186D01*
X217482048Y-62806172D01*
X217507034Y-62836617D01*
X217525601Y-62871353D01*
X217537035Y-62909046D01*
X217541500Y-62954381D01*
X217541500Y-64041059D01*
X217537035Y-64086394D01*
X217525601Y-64124087D01*
X217507034Y-64158823D01*
X217482048Y-64189268D01*
X217451603Y-64214254D01*
X217416867Y-64232821D01*
X217379174Y-64244255D01*
X217333839Y-64248720D01*
X216497161Y-64248720D01*
X216451826Y-64244255D01*
X216414133Y-64232821D01*
X216379397Y-64214254D01*
X216348952Y-64189268D01*
X216323966Y-64158823D01*
X216305399Y-64124087D01*
X216293965Y-64086394D01*
X216289500Y-64041059D01*
X216289500Y-62954381D01*
X216293965Y-62909046D01*
X216305399Y-62871353D01*
X216323966Y-62836617D01*
X216348952Y-62806172D01*
X216379397Y-62781186D01*
X216414133Y-62762619D01*
X216451826Y-62751185D01*
X216497161Y-62746720D01*
X217333839Y-62746720D01*
X217379174Y-62751185D01*
G37*
G36*
X215329174Y-62751185D02*
G01*
X215366867Y-62762619D01*
X215401603Y-62781186D01*
X215432048Y-62806172D01*
X215457034Y-62836617D01*
X215475601Y-62871353D01*
X215487035Y-62909046D01*
X215491500Y-62954381D01*
X215491500Y-64041059D01*
X215487035Y-64086394D01*
X215475601Y-64124087D01*
X215457034Y-64158823D01*
X215432048Y-64189268D01*
X215401603Y-64214254D01*
X215366867Y-64232821D01*
X215329174Y-64244255D01*
X215283839Y-64248720D01*
X214447161Y-64248720D01*
X214401826Y-64244255D01*
X214364133Y-64232821D01*
X214329397Y-64214254D01*
X214298952Y-64189268D01*
X214273966Y-64158823D01*
X214255399Y-64124087D01*
X214243965Y-64086394D01*
X214239500Y-64041059D01*
X214239500Y-62954381D01*
X214243965Y-62909046D01*
X214255399Y-62871353D01*
X214273966Y-62836617D01*
X214298952Y-62806172D01*
X214329397Y-62781186D01*
X214364133Y-62762619D01*
X214401826Y-62751185D01*
X214447161Y-62746720D01*
X215283839Y-62746720D01*
X215329174Y-62751185D01*
G37*
G36*
X166579174Y-62751185D02*
G01*
X166616867Y-62762619D01*
X166651603Y-62781186D01*
X166682048Y-62806172D01*
X166707034Y-62836617D01*
X166725601Y-62871353D01*
X166737035Y-62909046D01*
X166741500Y-62954381D01*
X166741500Y-64041059D01*
X166737035Y-64086394D01*
X166725601Y-64124087D01*
X166707034Y-64158823D01*
X166682048Y-64189268D01*
X166651603Y-64214254D01*
X166616867Y-64232821D01*
X166579174Y-64244255D01*
X166533839Y-64248720D01*
X165697161Y-64248720D01*
X165651826Y-64244255D01*
X165614133Y-64232821D01*
X165579397Y-64214254D01*
X165548952Y-64189268D01*
X165523966Y-64158823D01*
X165505399Y-64124087D01*
X165493965Y-64086394D01*
X165489500Y-64041059D01*
X165489500Y-62954381D01*
X165493965Y-62909046D01*
X165505399Y-62871353D01*
X165523966Y-62836617D01*
X165548952Y-62806172D01*
X165579397Y-62781186D01*
X165614133Y-62762619D01*
X165651826Y-62751185D01*
X165697161Y-62746720D01*
X166533839Y-62746720D01*
X166579174Y-62751185D01*
G37*
G36*
X164529174Y-62751185D02*
G01*
X164566867Y-62762619D01*
X164601603Y-62781186D01*
X164632048Y-62806172D01*
X164657034Y-62836617D01*
X164675601Y-62871353D01*
X164687035Y-62909046D01*
X164691500Y-62954381D01*
X164691500Y-64041059D01*
X164687035Y-64086394D01*
X164675601Y-64124087D01*
X164657034Y-64158823D01*
X164632048Y-64189268D01*
X164601603Y-64214254D01*
X164566867Y-64232821D01*
X164529174Y-64244255D01*
X164483839Y-64248720D01*
X163647161Y-64248720D01*
X163601826Y-64244255D01*
X163564133Y-64232821D01*
X163529397Y-64214254D01*
X163498952Y-64189268D01*
X163473966Y-64158823D01*
X163455399Y-64124087D01*
X163443965Y-64086394D01*
X163439500Y-64041059D01*
X163439500Y-62954381D01*
X163443965Y-62909046D01*
X163455399Y-62871353D01*
X163473966Y-62836617D01*
X163498952Y-62806172D01*
X163529397Y-62781186D01*
X163564133Y-62762619D01*
X163601826Y-62751185D01*
X163647161Y-62746720D01*
X164483839Y-62746720D01*
X164529174Y-62751185D01*
G37*
G36*
X113729174Y-62751185D02*
G01*
X113766867Y-62762619D01*
X113801603Y-62781186D01*
X113832048Y-62806172D01*
X113857034Y-62836617D01*
X113875601Y-62871353D01*
X113887035Y-62909046D01*
X113891500Y-62954381D01*
X113891500Y-64041059D01*
X113887035Y-64086394D01*
X113875601Y-64124087D01*
X113857034Y-64158823D01*
X113832048Y-64189268D01*
X113801603Y-64214254D01*
X113766867Y-64232821D01*
X113729174Y-64244255D01*
X113683839Y-64248720D01*
X112847161Y-64248720D01*
X112801826Y-64244255D01*
X112764133Y-64232821D01*
X112729397Y-64214254D01*
X112698952Y-64189268D01*
X112673966Y-64158823D01*
X112655399Y-64124087D01*
X112643965Y-64086394D01*
X112639500Y-64041059D01*
X112639500Y-62954381D01*
X112643965Y-62909046D01*
X112655399Y-62871353D01*
X112673966Y-62836617D01*
X112698952Y-62806172D01*
X112729397Y-62781186D01*
X112764133Y-62762619D01*
X112801826Y-62751185D01*
X112847161Y-62746720D01*
X113683839Y-62746720D01*
X113729174Y-62751185D01*
G37*
G36*
X115779174Y-62751185D02*
G01*
X115816867Y-62762619D01*
X115851603Y-62781186D01*
X115882048Y-62806172D01*
X115907034Y-62836617D01*
X115925601Y-62871353D01*
X115937035Y-62909046D01*
X115941500Y-62954381D01*
X115941500Y-64041059D01*
X115937035Y-64086394D01*
X115925601Y-64124087D01*
X115907034Y-64158823D01*
X115882048Y-64189268D01*
X115851603Y-64214254D01*
X115816867Y-64232821D01*
X115779174Y-64244255D01*
X115733839Y-64248720D01*
X114897161Y-64248720D01*
X114851826Y-64244255D01*
X114814133Y-64232821D01*
X114779397Y-64214254D01*
X114748952Y-64189268D01*
X114723966Y-64158823D01*
X114705399Y-64124087D01*
X114693965Y-64086394D01*
X114689500Y-64041059D01*
X114689500Y-62954381D01*
X114693965Y-62909046D01*
X114705399Y-62871353D01*
X114723966Y-62836617D01*
X114748952Y-62806172D01*
X114779397Y-62781186D01*
X114814133Y-62762619D01*
X114851826Y-62751185D01*
X114897161Y-62746720D01*
X115733839Y-62746720D01*
X115779174Y-62751185D01*
G37*
G36*
X64979174Y-62751185D02*
G01*
X65016867Y-62762619D01*
X65051603Y-62781186D01*
X65082048Y-62806172D01*
X65107034Y-62836617D01*
X65125601Y-62871353D01*
X65137035Y-62909046D01*
X65141500Y-62954381D01*
X65141500Y-64041059D01*
X65137035Y-64086394D01*
X65125601Y-64124087D01*
X65107034Y-64158823D01*
X65082048Y-64189268D01*
X65051603Y-64214254D01*
X65016867Y-64232821D01*
X64979174Y-64244255D01*
X64933839Y-64248720D01*
X64097161Y-64248720D01*
X64051826Y-64244255D01*
X64014133Y-64232821D01*
X63979397Y-64214254D01*
X63948952Y-64189268D01*
X63923966Y-64158823D01*
X63905399Y-64124087D01*
X63893965Y-64086394D01*
X63889500Y-64041059D01*
X63889500Y-62954381D01*
X63893965Y-62909046D01*
X63905399Y-62871353D01*
X63923966Y-62836617D01*
X63948952Y-62806172D01*
X63979397Y-62781186D01*
X64014133Y-62762619D01*
X64051826Y-62751185D01*
X64097161Y-62746720D01*
X64933839Y-62746720D01*
X64979174Y-62751185D01*
G37*
G36*
X62929174Y-62751185D02*
G01*
X62966867Y-62762619D01*
X63001603Y-62781186D01*
X63032048Y-62806172D01*
X63057034Y-62836617D01*
X63075601Y-62871353D01*
X63087035Y-62909046D01*
X63091500Y-62954381D01*
X63091500Y-64041059D01*
X63087035Y-64086394D01*
X63075601Y-64124087D01*
X63057034Y-64158823D01*
X63032048Y-64189268D01*
X63001603Y-64214254D01*
X62966867Y-64232821D01*
X62929174Y-64244255D01*
X62883839Y-64248720D01*
X62047161Y-64248720D01*
X62001826Y-64244255D01*
X61964133Y-64232821D01*
X61929397Y-64214254D01*
X61898952Y-64189268D01*
X61873966Y-64158823D01*
X61855399Y-64124087D01*
X61843965Y-64086394D01*
X61839500Y-64041059D01*
X61839500Y-62954381D01*
X61843965Y-62909046D01*
X61855399Y-62871353D01*
X61873966Y-62836617D01*
X61898952Y-62806172D01*
X61929397Y-62781186D01*
X61964133Y-62762619D01*
X62001826Y-62751185D01*
X62047161Y-62746720D01*
X62883839Y-62746720D01*
X62929174Y-62751185D01*
G37*
G36*
X269316500Y-62348720D02*
G01*
X269014500Y-62348720D01*
X269014500Y-62273719D01*
X269012098Y-62249333D01*
X269004985Y-62225884D01*
X268993434Y-62204273D01*
X268977889Y-62185331D01*
X268958947Y-62169786D01*
X268937336Y-62158235D01*
X268913887Y-62151122D01*
X268889501Y-62148720D01*
X268514500Y-62148720D01*
X268514500Y-61346720D01*
X268889501Y-61346720D01*
X268913887Y-61344318D01*
X268937336Y-61337205D01*
X268958947Y-61325654D01*
X268977889Y-61310109D01*
X268993434Y-61291167D01*
X269004985Y-61269556D01*
X269012098Y-61246107D01*
X269014500Y-61221721D01*
X269014500Y-61146720D01*
X269316500Y-61146720D01*
X269316500Y-62348720D01*
G37*
G36*
X264366500Y-61221721D02*
G01*
X264368902Y-61246107D01*
X264376015Y-61269556D01*
X264387566Y-61291167D01*
X264403111Y-61310109D01*
X264422053Y-61325654D01*
X264443664Y-61337205D01*
X264467113Y-61344318D01*
X264491499Y-61346720D01*
X264866500Y-61346720D01*
X264866500Y-62148720D01*
X264491499Y-62148720D01*
X264467113Y-62151122D01*
X264443664Y-62158235D01*
X264422053Y-62169786D01*
X264403111Y-62185331D01*
X264387566Y-62204273D01*
X264376015Y-62225884D01*
X264368902Y-62249333D01*
X264366500Y-62273719D01*
X264366500Y-62348720D01*
X264064500Y-62348720D01*
X264064500Y-61146720D01*
X264366500Y-61146720D01*
X264366500Y-61221721D01*
G37*
M02*
